<svg width="16" height="16" viewBox="0 0 16 16" fill="none" xmlns="http://www.w3.org/2000/svg">
<path d="M0.782411 5.40904C0.597891 5.40476 0.418489 5.33448 0.276819 5.21097C0.135148 5.08746 0.0406135 4.91894 0.0104006 4.73602C-0.0198124 4.5531 0.0163028 4.36794 0.112179 4.21419C0.208055 4.06045 0.357328 3.94832 0.532863 3.89821L15.0115 0.0228093C15.142 -0.00993392 15.2802 -0.00738438 15.4121 0.0301991C15.544 0.0677827 15.665 0.139074 15.7629 0.236894C15.8608 0.334714 15.9322 0.455609 15.9698 0.587404C16.0074 0.7192 16.0099 0.857241 15.9772 0.987628L12.0984 15.4537C12.0511 15.632 11.9401 15.7846 11.7857 15.8832C11.6314 15.9819 11.4444 16.0199 11.2593 15.9901C11.0745 15.9578 10.905 15.8607 10.7815 15.7165C10.658 15.5723 10.5887 15.3905 10.5862 15.2043C10.6809 10.0136 5.97728 5.31466 0.782411 5.40904Z" fill="#3D3D3D"/>
</svg>
