<svg width="35" height="25" viewBox="0 0 35 25" fill="none" xmlns="http://www.w3.org/2000/svg">
<path d="M20.9999 0H13.9999C7.40066 0 4.10016 -1.86265e-07 2.05091 1.83125C0.57391 3.14844 0.16091 5.04531 0.0454102 8.20312H34.9544C34.8389 5.04531 34.4259 3.14844 32.9489 1.83125C30.8997 -1.86265e-07 27.5992 0 20.9999 0Z" fill="white"/>
<path fill-rule="evenodd" clip-rule="evenodd" d="M21 25H14C7.40075 25 4.10025 25 2.051 23.1687C-2.08616e-07 21.3391 0 18.3922 0 12.5C0 11.8094 1.63389e-07 11.1594 0.00350016 10.5469H34.9965C35 11.1594 35 11.8094 35 12.5C35 18.3922 35 21.3391 32.949 23.1687C30.8997 25 27.5993 25 21 25ZM24.5788 12.8906C25.3365 12.8906 26.0312 12.8906 26.5948 12.9578C27.2178 13.0328 27.874 13.2078 28.4147 13.6922C28.9572 14.175 29.1533 14.7609 29.2373 15.3172C29.3125 15.8219 29.3125 16.4422 29.3125 17.1172V17.2578C29.3125 17.9344 29.3125 18.5547 29.2373 19.0578C29.1533 19.6141 28.9572 20.2 28.4147 20.6828C27.874 21.1672 27.2178 21.3422 26.5948 21.4172C26.0295 21.4844 25.3347 21.4844 24.5788 21.4844H24.4212C23.6635 21.4844 22.9688 21.4844 22.4053 21.4172C21.7823 21.3422 21.126 21.1672 20.5852 20.6828C20.0427 20.2 19.8468 19.6141 19.7628 19.0578C19.6875 18.5531 19.6875 17.9328 19.6875 17.2578V17.1172C19.6875 16.4406 19.6875 15.8203 19.7628 15.3172C19.8468 14.7609 20.0427 14.175 20.5852 13.6922C21.126 13.2078 21.7823 13.0328 22.4053 12.9578C22.9705 12.8906 23.6653 12.8906 24.4212 12.8906H24.5788ZM5.6875 14.8437C5.6875 14.5329 5.82578 14.2349 6.07192 14.0151C6.31806 13.7953 6.6519 13.6719 7 13.6719H10.5C10.8481 13.6719 11.1819 13.7953 11.4281 14.0151C11.6742 14.2349 11.8125 14.5329 11.8125 14.8437C11.8125 15.1546 11.6742 15.4526 11.4281 15.6724C11.1819 15.8922 10.8481 16.0156 10.5 16.0156H7C6.6519 16.0156 6.31806 15.8922 6.07192 15.6724C5.82578 15.4526 5.6875 15.1546 5.6875 14.8437ZM5.6875 19.5312C5.6875 19.2204 5.82578 18.9224 6.07192 18.7026C6.31806 18.4828 6.6519 18.3594 7 18.3594H14C14.3481 18.3594 14.6819 18.4828 14.9281 18.7026C15.1742 18.9224 15.3125 19.2204 15.3125 19.5312C15.3125 19.842 15.1742 20.1401 14.9281 20.3599C14.6819 20.5797 14.3481 20.7031 14 20.7031H7C6.6519 20.7031 6.31806 20.5797 6.07192 20.3599C5.82578 20.1401 5.6875 19.842 5.6875 19.5312Z" fill="white"/>
<path d="M22.4402 15.3484L22.4455 15.3469C22.5451 15.3131 22.6492 15.291 22.7553 15.2812C23.1228 15.2375 23.6372 15.2344 24.5 15.2344C25.3628 15.2344 25.8772 15.2375 26.2447 15.2812C26.3508 15.291 26.4549 15.3131 26.5545 15.3469L26.5598 15.3484L26.5615 15.3531C26.5993 15.4421 26.624 15.535 26.635 15.6297C26.684 15.9578 26.6875 16.4172 26.6875 17.1875C26.6875 17.9578 26.684 18.4172 26.635 18.7453C26.624 18.84 26.5993 18.9329 26.5615 19.0219L26.5598 19.0266L26.5545 19.0281C26.4549 19.0619 26.3508 19.084 26.2447 19.0937C25.8772 19.1375 25.3628 19.1406 24.5 19.1406C23.6372 19.1406 23.1228 19.1375 22.7553 19.0937C22.6492 19.084 22.5451 19.0619 22.4455 19.0281L22.4402 19.0266L22.4385 19.0219C22.4007 18.9329 22.376 18.84 22.365 18.7453C22.316 18.4172 22.3125 17.9578 22.3125 17.1875C22.3125 16.4172 22.316 15.9578 22.365 15.6297C22.376 15.535 22.4007 15.4421 22.4385 15.3531L22.4402 15.3484Z" fill="white"/>
</svg>
